<?xml version="1.0" encoding="UTF-8" ?>
<!DOCTYPE svg PUBLIC "-//W3C//DTD SVG 1.1//EN" "http://www.w3.org/Graphics/SVG/1.1/DTD/svg11.dtd">
<svg width="739pt" height="415pt" viewBox="0 0 739 415" version="1.1" xmlns="http://www.w3.org/2000/svg">
<g id="#ffffffff">
</g>
<g id="#1c4158ff">
<path fill="#1c4158" opacity="1.00" d=" M 251.75 123.57 C 254.07 121.45 257.61 122.31 259.91 124.00 C 264.08 126.37 262.15 131.86 262.45 135.77 C 264.72 137.86 267.91 137.90 270.76 138.57 C 275.85 139.50 280.17 142.65 285.21 143.77 C 285.58 141.24 286.22 138.69 287.60 136.51 C 290.77 132.49 297.66 132.00 301.15 135.87 C 303.93 138.68 302.70 143.54 299.93 145.93 C 297.59 147.82 295.02 149.45 293.09 151.80 C 299.11 158.54 304.47 166.21 305.94 175.34 C 316.30 175.81 326.67 175.39 337.03 175.82 C 340.16 176.51 344.31 175.83 346.16 179.13 C 347.21 182.55 347.05 187.90 342.94 189.15 C 331.41 189.55 319.86 189.07 308.32 189.38 C 306.56 194.99 306.18 201.04 303.46 206.34 C 300.72 211.68 297.01 216.43 293.24 221.08 C 300.22 227.32 305.11 235.61 312.83 241.05 C 314.69 242.81 318.02 243.99 317.80 247.05 C 317.62 251.53 313.76 254.70 309.94 256.35 C 308.04 256.32 306.85 254.47 305.61 253.27 C 301.08 247.84 295.76 243.15 291.22 237.72 C 288.73 234.90 286.24 232.05 283.41 229.55 C 280.15 228.61 277.62 231.51 274.75 232.47 C 271.18 234.14 266.68 233.83 263.62 236.45 C 263.27 242.30 264.20 248.18 263.45 254.01 C 261.68 259.69 251.76 258.83 250.80 253.02 C 249.46 247.37 250.86 241.55 250.75 235.83 C 239.75 233.17 228.72 228.60 220.74 220.31 C 216.11 215.50 212.47 209.68 210.22 203.40 C 210.04 203.82 209.86 204.24 209.68 204.67 C 208.85 199.05 206.05 193.80 206.23 188.03 C 206.29 180.88 205.40 173.32 208.70 166.68 C 211.09 161.87 213.16 156.76 216.60 152.57 C 217.77 152.25 219.35 151.67 220.38 152.61 C 223.29 155.04 225.83 157.90 228.96 160.07 C 227.92 161.21 226.86 162.34 225.84 163.50 C 217.49 172.49 217.76 186.59 222.14 197.36 C 222.82 199.12 223.72 200.79 224.69 202.41 C 229.74 209.86 236.57 216.97 245.59 219.22 C 250.88 220.95 256.51 220.67 261.98 220.25 C 258.67 221.12 255.24 221.47 251.83 221.54 C 257.59 221.98 263.69 222.66 269.18 220.39 C 278.31 216.58 286.39 209.78 290.75 200.81 C 291.95 198.06 291.90 194.98 292.07 192.05 C 292.10 187.77 292.82 183.23 290.82 179.25 C 289.48 175.67 288.54 171.89 286.44 168.65 C 281.86 160.89 274.21 155.34 265.92 152.11 C 264.20 151.31 262.30 151.75 260.51 151.90 C 260.59 154.67 260.57 157.44 260.53 160.20 C 259.01 160.94 257.52 161.73 255.96 162.36 C 253.78 162.77 251.73 161.70 249.67 161.24 C 249.12 157.87 248.50 154.52 248.23 151.12 C 243.45 152.27 238.91 154.25 234.50 156.38 C 232.04 152.57 228.55 149.33 227.10 144.94 C 231.62 142.94 235.92 140.31 240.77 139.12 C 243.66 138.36 246.56 137.60 249.37 136.56 C 249.65 132.28 247.81 126.61 251.75 123.57 Z" />
</g>
<g id="#1f445aff">
<path fill="#1f445a" opacity="1.00" d=" M 313.27 158.03 C 312.48 153.21 315.56 148.41 320.03 146.70 C 323.47 145.79 327.58 146.09 330.07 148.92 C 332.95 151.42 332.92 155.54 332.39 159.00 C 331.60 162.50 328.39 164.57 325.87 166.79 C 323.35 166.41 320.80 166.24 318.27 165.97 C 315.57 164.22 312.74 161.57 313.27 158.03 M 320.48 150.60 C 319.10 151.59 317.88 152.86 317.23 154.45 C 314.61 159.07 321.24 164.93 325.57 161.79 C 329.49 160.42 330.90 154.94 328.08 151.92 C 326.34 149.54 322.99 150.28 320.48 150.60 Z" />
</g>
<g id="#fefefeff">
</g>
<g id="#618ab1ff">
<path fill="#618ab1" opacity="1.00" d=" M 228.96 160.07 C 230.44 160.89 232.60 162.33 231.21 164.25 C 228.09 169.10 224.99 174.12 223.94 179.89 C 223.57 183.15 223.18 186.42 222.42 189.63 L 222.35 189.94 C 221.11 184.13 221.10 177.89 223.41 172.34 C 224.91 168.81 227.82 166.20 230.26 163.32 C 228.78 163.18 227.29 163.13 225.84 163.50 C 226.86 162.34 227.92 161.21 228.96 160.07 Z" />
</g>
<g id="#e0e7ecff">
<path fill="#e0e7ec" opacity="1.00" d=" M 225.84 163.50 C 227.29 163.13 228.78 163.18 230.26 163.32 C 227.82 166.20 224.91 168.81 223.41 172.34 C 221.10 177.89 221.11 184.13 222.35 189.94 C 222.32 192.41 222.18 194.88 222.14 197.36 C 217.76 186.59 217.49 172.49 225.84 163.50 Z" />
</g>
<g id="#eeeeeeff">
<path fill="#eeeeee" opacity="1.00" d=" M 315.18 174.80 C 313.58 171.57 314.49 167.10 318.27 165.97 C 320.80 166.24 323.35 166.41 325.87 166.79 L 327.03 166.99 C 325.02 168.21 322.66 168.34 320.39 168.51 C 320.10 170.53 319.81 172.55 319.53 174.57 C 318.08 174.66 316.63 174.73 315.18 174.80 Z" />
</g>
<g id="#255e93ff">
<path fill="#255e93" opacity="1.00" d=" M 252.41 172.61 C 256.93 171.14 262.58 171.27 266.03 174.96 C 271.46 179.76 272.22 188.92 267.47 194.43 C 262.99 200.24 253.08 201.73 247.97 195.97 C 241.32 189.25 243.66 176.34 252.41 172.61 Z" />
</g>
<g id="#bacbdaff">
<path fill="#bacbda" opacity="1.00" d=" M 222.42 189.63 C 223.18 186.42 223.57 183.15 223.94 179.89 C 223.25 187.02 224.98 194.01 227.07 200.76 C 226.47 201.17 225.29 201.99 224.69 202.41 C 223.72 200.79 222.82 199.12 222.14 197.36 C 222.18 194.88 222.32 192.41 222.35 189.94 L 222.42 189.63 Z" />
</g>
<g id="#3f6f9bff">
<path fill="#3f6f9b" opacity="1.00" d=" M 290.82 179.25 C 292.82 183.23 292.10 187.77 292.07 192.05 C 291.90 194.98 291.95 198.06 290.75 200.81 C 286.39 209.78 278.31 216.58 269.18 220.39 C 263.69 222.66 257.59 221.98 251.83 221.54 C 255.24 221.47 258.67 221.12 261.98 220.25 C 267.93 217.26 274.70 215.32 279.27 210.17 C 282.45 206.43 286.57 203.38 288.60 198.78 C 292.11 192.84 289.96 185.73 290.82 179.25 Z" />
</g>
<g id="#1d4259ff">
<path fill="#1d4259" opacity="1.00" d=" M 539.57 193.00 C 539.21 189.14 544.22 190.97 546.55 191.00 C 546.39 195.87 546.39 200.75 546.57 205.63 C 549.28 204.54 551.99 202.88 555.04 203.30 C 558.54 203.27 561.34 206.56 561.46 209.94 C 561.69 215.44 561.52 220.94 561.48 226.45 C 559.13 226.53 556.78 226.47 554.47 226.11 C 554.57 220.76 554.77 215.39 554.43 210.05 C 553.02 206.42 547.29 207.32 546.65 211.00 C 546.22 216.02 546.48 221.07 546.55 226.10 C 544.26 226.53 541.93 226.51 539.63 226.37 C 539.49 215.24 539.57 204.12 539.57 193.00 Z" />
<path fill="#1d4259" opacity="1.00" d=" M 369.24 200.24 C 374.13 193.86 383.11 192.49 390.48 194.66 C 391.01 196.56 391.34 198.51 391.46 200.48 C 386.34 200.74 379.87 198.46 376.02 202.98 C 372.97 205.78 373.05 210.30 373.76 214.05 C 374.43 217.54 377.78 219.54 380.99 220.28 C 384.43 220.72 387.86 220.04 391.20 219.25 C 390.94 221.14 392.23 223.96 390.02 225.01 C 381.72 228.90 369.05 225.79 366.55 216.06 C 366.09 210.72 365.43 204.59 369.24 200.24 Z" />
<path fill="#1d4259" opacity="1.00" d=" M 466.27 193.92 C 474.70 193.65 483.18 193.41 491.60 194.06 C 491.58 195.95 491.58 197.84 491.61 199.73 C 488.55 200.12 485.47 200.29 482.39 200.32 C 482.32 208.92 482.77 217.56 482.19 226.14 C 479.97 226.91 477.62 226.37 475.36 226.21 C 475.45 217.56 475.56 208.91 475.30 200.26 C 472.27 200.28 469.25 200.17 466.25 199.79 C 466.26 197.83 466.27 195.87 466.27 193.92 Z" />
<path fill="#1d4259" opacity="1.00" d=" M 424.80 203.30 C 426.99 203.31 429.19 203.33 431.38 203.36 C 431.51 204.05 431.76 205.44 431.89 206.13 C 434.17 204.47 436.64 202.97 439.58 203.14 C 439.59 205.23 439.60 207.32 439.64 209.42 C 436.56 209.12 432.75 209.47 431.77 213.02 C 431.24 217.38 431.56 221.80 431.61 226.19 C 429.32 226.06 425.84 227.85 424.78 224.95 C 424.58 217.74 424.51 210.51 424.80 203.30 Z" />
</g>
<g id="#2d6497ff">
<path fill="#2d6497" opacity="1.00" d=" M 317.46 200.54 C 325.21 196.59 334.82 204.71 333.43 212.90 C 332.12 217.81 328.01 222.46 322.64 222.65 C 318.16 223.32 312.98 221.16 311.76 216.50 C 311.29 213.19 311.30 209.80 311.75 206.49 C 312.66 203.82 315.08 201.90 317.46 200.54 M 321.26 203.91 C 316.47 205.17 313.81 210.75 315.81 215.26 C 318.03 220.55 326.84 219.96 328.82 214.71 C 331.42 209.74 326.89 202.58 321.26 203.91 Z" />
</g>
<g id="#1e435aff">
<path fill="#1e435a" opacity="1.00" d=" M 497.44 203.73 C 501.13 203.03 505.64 202.60 508.62 205.39 C 512.14 208.17 512.73 213.01 512.40 217.20 C 507.25 217.37 502.09 217.18 496.95 217.44 C 497.55 218.89 498.10 220.50 499.50 221.40 C 503.07 222.17 506.75 221.16 510.32 221.78 C 511.57 224.37 508.69 225.27 506.87 226.08 C 501.72 227.34 495.43 226.41 492.03 221.98 C 490.03 219.80 490.49 216.67 490.43 213.97 C 490.08 209.45 493.51 205.48 497.44 203.73 M 496.99 212.44 C 499.94 212.51 502.88 212.51 505.83 212.50 C 505.66 211.22 505.49 209.94 505.33 208.66 C 501.96 206.68 497.48 208.40 496.99 212.44 Z" />
<path fill="#1e435a" opacity="1.00" d=" M 401.41 204.50 C 407.60 201.62 416.31 203.32 419.27 209.99 C 419.75 214.13 420.38 219.00 417.43 222.42 C 412.05 228.16 401.34 227.96 396.70 221.41 C 393.96 215.76 394.82 207.08 401.41 204.50 M 405.32 208.16 C 401.22 210.05 402.17 215.30 402.59 218.93 C 403.94 221.87 407.20 222.09 410.00 221.54 C 413.39 219.86 413.75 215.29 412.98 212.02 C 412.41 208.64 408.36 206.63 405.32 208.16 Z" />
<path fill="#1e435a" opacity="1.00" d=" M 444.52 207.44 C 448.61 201.98 457.64 201.80 462.12 206.86 C 464.15 209.84 464.36 213.65 464.33 217.16 C 459.18 217.39 454.02 217.20 448.88 217.40 C 449.49 219.04 450.24 220.76 451.95 221.53 C 455.22 221.90 458.52 221.62 461.80 221.38 C 461.76 222.51 461.73 223.64 461.71 224.77 C 456.66 227.48 449.97 227.29 445.45 223.59 C 443.89 222.16 442.39 220.31 442.45 218.09 C 442.24 214.46 441.91 210.36 444.52 207.44 M 448.75 212.27 C 451.76 212.52 454.78 212.52 457.80 212.38 C 457.43 210.38 456.45 207.64 453.98 207.70 C 451.22 207.42 449.76 210.18 448.75 212.27 Z" />
</g>
<g id="#1f435aff">
<path fill="#1f435a" opacity="1.00" d=" M 523.47 203.81 C 527.01 202.84 530.75 203.37 534.37 203.59 C 534.45 205.27 534.54 206.95 534.64 208.64 C 531.89 208.24 528.93 207.01 526.26 208.30 C 521.26 210.52 520.97 219.07 526.06 221.37 C 528.76 222.02 531.57 221.55 534.31 221.35 C 534.29 223.00 534.98 225.31 532.83 225.90 C 527.11 227.85 519.69 225.97 516.80 220.27 C 513.38 214.23 517.23 206.15 523.47 203.81 Z" />
</g>
<g id="#fdfefeff">
</g>
<g id="#fbfbfbff">
</g>
<g id="#c5c6c7ff">
<path fill="#c5c6c7" opacity="1.00" d=" M 189.51 265.69 C 190.63 265.44 191.77 265.31 192.93 265.32 C 241.31 265.43 289.69 265.28 338.07 265.25 C 342.23 264.90 345.61 267.88 347.87 271.05 C 349.60 273.68 349.49 277.01 349.44 280.04 C 349.41 286.47 343.32 291.77 337.04 291.69 C 290.36 292.00 243.68 291.92 197.00 292.16 C 192.78 292.08 187.99 292.40 184.60 289.41 C 179.90 285.75 178.40 278.99 180.51 273.51 C 181.85 269.52 185.72 267.02 189.51 265.69 Z" />
</g>
</svg>
